<svg width="128" height="64" viewBox="0 0 128 64" fill="none" xmlns="http://www.w3.org/2000/svg">
<path d="M65.6801 32.1217H62.0868V19.4876H65.6801V24.4895H68.4701V19.4876H72.0634V32.1217H68.4701V26.9689H65.6801V32.1217Z" fill="#008C8C"/>
<path d="M73.624 32.1217V25.1471L72.9727 24.7483V23.5948L75.3067 22.9588H77.1196V32.1217H73.624ZM75.1981 21.967L73.4177 20.1883V19.811L75.1981 18.0431H75.6106L77.467 19.811V20.1883L75.6106 21.967H75.1981Z" fill="#008C8C"/>
<path d="M84.6857 32.1217L84.2623 30.7311C84.2044 30.8317 84.1357 30.9324 84.0561 31.033C83.9837 31.1336 83.8643 31.2629 83.6978 31.4211C83.5314 31.572 83.3541 31.7049 83.1659 31.8199C82.9777 31.9349 82.7425 32.0355 82.4603 32.1217C82.178 32.208 81.8813 32.2511 81.5701 32.2511C80.3759 32.2511 79.5002 31.8451 78.943 31.033C78.3857 30.2209 78.1071 29.0926 78.1071 27.6481C78.1071 26.7425 78.2373 25.9376 78.4979 25.2334C78.7584 24.5219 79.1673 23.9505 79.7246 23.5193C80.2818 23.0881 80.9549 22.8725 81.7438 22.8725C82.2142 22.8725 82.634 22.9229 83.003 23.0235C83.3722 23.1241 83.6906 23.2462 83.9584 23.39V20.1237L82.7642 19.7248V18.539L86.6072 18H87.454V32.1217H84.6857ZM83.155 30.1382C83.2853 30.1382 83.4192 30.1167 83.5567 30.0736C83.6942 30.0233 83.8281 29.955 83.9584 29.8687V24.4464C83.734 24.3961 83.5278 24.371 83.3396 24.371C82.377 24.3781 81.8921 25.1148 81.8849 26.5809V28.09C81.8849 28.7656 82.0043 29.2758 82.2431 29.6208C82.482 29.9658 82.7859 30.1382 83.155 30.1382Z" fill="#008C8C"/>
<path d="M93.6116 31.1623L93.503 31.2809C93.4307 31.3672 93.3185 31.4678 93.1665 31.5828C93.0218 31.6977 92.8517 31.8127 92.6563 31.9277C92.4681 32.0427 92.2365 32.1397 91.9615 32.2188C91.6865 32.305 91.4042 32.3481 91.1148 32.3481C89.1607 32.3481 88.1837 31.3887 88.1837 29.4699C88.1837 29.0962 88.2524 28.7548 88.3899 28.4458C88.5274 28.1296 88.7048 27.8637 88.9219 27.6481C89.139 27.4325 89.3995 27.242 89.7035 27.0767C90.0075 26.9042 90.3114 26.7713 90.6154 26.6779C90.9266 26.5773 91.2523 26.4946 91.5924 26.4299C91.9326 26.3653 92.2365 26.3221 92.5043 26.3006C92.7721 26.279 93.029 26.2682 93.2751 26.2682V26.0742C93.2751 25.6358 93.1557 25.3268 92.9168 25.1471C92.6852 24.9675 92.3089 24.8776 91.7878 24.8776C91.3391 24.8776 90.8723 24.9315 90.3874 25.0393C89.9025 25.1399 89.5226 25.2621 89.2475 25.4058L88.5528 23.9398C89.0449 23.6235 89.6854 23.3469 90.4743 23.1097C91.2631 22.8654 92.0665 22.7432 92.8843 22.7432C93.608 22.7432 94.2051 22.8151 94.6755 22.9588C95.1459 23.0953 95.5259 23.3325 95.8153 23.6703C96.1121 24.0008 96.322 24.4249 96.445 24.9423C96.568 25.4525 96.6295 26.1029 96.6295 26.8935V31.2809L96.9335 32.1217H93.959L93.6116 31.1623ZM92.754 30.4509C92.8481 30.4509 92.9349 30.4329 93.0145 30.397C93.1014 30.3538 93.1665 30.3143 93.2099 30.2784C93.2534 30.2353 93.2751 30.2137 93.2751 30.2137V27.6265C92.8336 27.6265 92.4826 27.7487 92.2221 27.993C91.9615 28.2302 91.8312 28.6003 91.8312 29.1034C91.8312 30.0017 92.1388 30.4509 92.754 30.4509Z" fill="#008C8C"/>
<path d="M102.469 35.8301C101.723 35.8301 101.021 35.7223 100.363 35.5067C99.7042 35.2911 99.2229 35 98.9189 34.6335L99.4834 33.4692C99.9032 33.7064 100.569 33.825 101.481 33.825C101.77 33.825 102.02 33.7926 102.23 33.728C102.44 33.6633 102.628 33.5483 102.794 33.383C102.961 33.2249 103.088 32.9985 103.174 32.7039C103.261 32.4092 103.308 32.0463 103.316 31.6151V30.688L103.207 30.8605C103.135 30.9755 103.022 31.1156 102.87 31.2809C102.726 31.439 102.559 31.6007 102.371 31.766C102.183 31.9241 101.951 32.0607 101.676 32.1757C101.409 32.2906 101.134 32.3481 100.851 32.3481C99.7729 32.3481 99.013 32.0499 98.5716 31.4534C98.1301 30.8497 97.9093 29.8364 97.9093 28.4134V24.5866L97.5185 24.1985V22.9588H101.47V29.0926C101.47 29.4232 101.521 29.6675 101.622 29.8256C101.731 29.9765 101.944 30.052 102.263 30.052C102.357 30.052 102.451 30.0376 102.545 30.0089C102.639 29.9729 102.729 29.9262 102.816 29.8687C102.91 29.8112 103.008 29.7394 103.109 29.6531V24.5866L102.512 24.1985V22.9588H106.648V30.8605C106.648 32.4487 106.308 33.6741 105.628 34.5365C104.948 35.3989 103.895 35.8301 102.469 35.8301Z" fill="#008C8C"/>
<path d="M112.79 31.1623L112.681 31.2809C112.609 31.3672 112.496 31.4678 112.345 31.5828C112.2 31.6977 112.03 31.8127 111.834 31.9277C111.646 32.0427 111.415 32.1397 111.14 32.2188C110.864 32.305 110.582 32.3481 110.293 32.3481C108.339 32.3481 107.362 31.3887 107.362 29.4699C107.362 29.0962 107.43 28.7548 107.568 28.4458C107.705 28.1296 107.883 27.8637 108.1 27.6481C108.317 27.4325 108.578 27.242 108.881 27.0767C109.185 26.9042 109.489 26.7713 109.793 26.6779C110.105 26.5773 110.43 26.4946 110.77 26.4299C111.111 26.3653 111.415 26.3221 111.682 26.3006C111.95 26.279 112.207 26.2682 112.453 26.2682V26.0742C112.453 25.6358 112.334 25.3268 112.095 25.1471C111.863 24.9675 111.487 24.8776 110.966 24.8776C110.517 24.8776 110.05 24.9315 109.565 25.0393C109.081 25.1399 108.701 25.2621 108.426 25.4058L107.731 23.9398C108.223 23.6235 108.863 23.3469 109.652 23.1097C110.441 22.8654 111.244 22.7432 112.062 22.7432C112.786 22.7432 113.383 22.8151 113.853 22.9588C114.324 23.0953 114.704 23.3325 114.993 23.6703C115.29 24.0008 115.5 24.4249 115.623 24.9423C115.746 25.4525 115.808 26.1029 115.808 26.8935V31.2809L116.111 32.1217H113.137L112.79 31.1623ZM111.932 30.4509C112.026 30.4509 112.113 30.4329 112.193 30.397C112.279 30.3538 112.345 30.3143 112.388 30.2784C112.431 30.2353 112.453 30.2137 112.453 30.2137V27.6265C112.012 27.6265 111.661 27.7487 111.4 27.993C111.14 28.2302 111.009 28.6003 111.009 29.1034C111.009 30.0017 111.317 30.4509 111.932 30.4509Z" fill="#008C8C"/>
<path d="M120.561 32.1217H117.044V19.9296L116.393 19.5415V18.539L119.877 18H120.583V24.3494L120.713 24.1877C120.8 24.0727 120.927 23.9362 121.093 23.7781C121.267 23.62 121.459 23.4654 121.669 23.3145C121.878 23.1564 122.128 23.0235 122.418 22.9157C122.714 22.8007 123.004 22.7432 123.286 22.7432C124.278 22.7432 124.976 23.0127 125.381 23.5517C125.794 24.0907 126 24.9926 126 26.2575C126 26.3006 126 26.3653 126 26.4515C125.993 26.5377 125.989 26.606 125.989 26.6563V32.1217H122.407V26.3437C122.428 25.6681 122.139 25.3304 121.538 25.3304C121.48 25.3304 121.422 25.334 121.365 25.3412C121.314 25.3483 121.26 25.3663 121.202 25.3951C121.144 25.4238 121.097 25.4454 121.061 25.4597C121.032 25.4741 120.985 25.5029 120.919 25.546C120.862 25.5891 120.822 25.6178 120.8 25.6322C120.786 25.6466 120.742 25.6825 120.67 25.74C120.605 25.7975 120.568 25.8298 120.561 25.837V32.1217Z" fill="#008C8C"/>
<path d="M64.334 48.4965C63.8057 48.4965 63.328 48.4282 62.901 48.2917C62.474 48.148 62.1845 48.0042 62.0326 47.8605L62 45.629C62.2388 45.7584 62.4306 45.8446 62.5754 45.8878C62.7201 45.9309 62.9083 45.9524 63.1399 45.9524C63.5307 45.9524 63.8383 45.8375 64.0626 45.6075C64.2942 45.3775 64.41 44.9894 64.41 44.4432V36.6062L63.8889 35.6576H67.9382V44.2384C67.9382 44.7415 67.9092 45.1907 67.8513 45.5859C67.8007 45.974 67.6957 46.3585 67.5365 46.7394C67.3773 47.1131 67.1674 47.4257 66.9069 47.6772C66.6463 47.9216 66.2989 48.1192 65.8647 48.2701C65.4305 48.4211 64.9202 48.4965 64.334 48.4965Z" fill="#008C8C"/>
<path d="M73.7581 47.2245C74.0765 47.2245 74.319 47.0951 74.4854 46.8364C74.6591 46.5705 74.746 46.2076 74.746 45.7476V42.3412C74.746 40.9398 74.4131 40.2391 73.7472 40.2391C73.436 40.2391 73.1936 40.3648 73.0199 40.6164C72.8462 40.8679 72.7594 41.2236 72.7594 41.6836V45.1871C72.7594 46.5453 73.0923 47.2245 73.7581 47.2245ZM73.6712 48.5181C72.0139 48.5181 70.8017 48.1444 70.0345 47.397C69.2674 46.6495 68.8838 45.4566 68.8838 43.818C68.8838 42.1938 69.271 40.9721 70.0454 40.1528C70.8198 39.3264 72.0791 38.9131 73.8232 38.9131C75.524 38.9131 76.7507 39.3084 77.5034 40.0989C78.2633 40.8823 78.6432 42.0717 78.6432 43.6671C78.6432 45.32 78.2416 46.5417 77.4382 47.3323C76.6421 48.1228 75.3865 48.5181 73.6712 48.5181Z" fill="#008C8C"/>
<path d="M85.1344 46.858C85.0909 46.9586 85.0005 47.0915 84.863 47.2568C84.7327 47.4221 84.559 47.6054 84.3419 47.8066C84.1248 48.0006 83.857 48.1659 83.5386 48.3025C83.2201 48.4462 82.8981 48.5181 82.5724 48.5181C81.5519 48.5181 80.821 48.2162 80.3795 47.6126C79.9453 47.0089 79.7281 46.0028 79.7281 44.5942V40.7565L79.3482 40.3684V39.1287H83.2889V45.2733C83.2816 45.5967 83.3359 45.8375 83.4517 45.9956C83.5675 46.1465 83.7774 46.2219 84.0813 46.2219C84.1248 46.2219 84.1646 46.2219 84.2008 46.2219C84.2369 46.2148 84.2731 46.2076 84.3093 46.2004C84.3455 46.186 84.3745 46.1752 84.3962 46.168C84.4251 46.1609 84.4577 46.1501 84.4939 46.1357C84.5301 46.1141 84.559 46.0962 84.5807 46.0818C84.6024 46.0674 84.6314 46.0495 84.6676 46.0279C84.7037 45.9992 84.7291 45.9776 84.7436 45.9632C84.7653 45.9488 84.7942 45.9273 84.8304 45.8985C84.8738 45.8626 84.9064 45.8375 84.9281 45.8231V40.7565L84.3419 40.3684V39.1287H88.478V48.2917H85.4709L85.1344 46.858Z" fill="#008C8C"/>
<path d="M93.4779 48.2917H89.9714V41.3171L89.3201 40.9182V39.7001L91.6541 39.1287H92.5334L92.8482 41.6944C93.1449 39.9336 94.0966 39.0533 95.7033 39.0533C95.8842 39.0533 96.0724 39.0856 96.2678 39.1503L95.8987 42.988C95.7467 42.8514 95.4138 42.7831 94.9 42.7831C94.1618 42.7831 93.6877 42.9772 93.4779 43.3653V48.2917Z" fill="#008C8C"/>
<path d="M100.634 48.2917H97.1274V41.3171L96.476 40.9182V39.7647L98.81 39.1287H100.656V40.5193L100.786 40.3576C100.873 40.2427 100.999 40.1061 101.166 39.948C101.339 39.7899 101.531 39.6354 101.741 39.4845C101.951 39.3264 102.201 39.1934 102.49 39.0856C102.787 38.9706 103.076 38.9131 103.359 38.9131C104.35 38.9131 105.049 39.1826 105.454 39.7216C105.866 40.2606 106.073 41.1625 106.073 42.4274C106.073 42.4705 106.073 42.5352 106.073 42.6214C106.065 42.7077 106.062 42.7759 106.062 42.8263V48.2917H102.479V42.5136C102.501 41.8381 102.212 41.5003 101.611 41.5003C101.567 41.5003 101.524 41.5039 101.481 41.5111C101.444 41.5183 101.408 41.5255 101.372 41.5327C101.343 41.5398 101.307 41.5542 101.263 41.5758C101.227 41.5902 101.195 41.6045 101.166 41.6189C101.137 41.6261 101.104 41.6441 101.068 41.6728C101.032 41.6944 101.003 41.7123 100.981 41.7267C100.96 41.7411 100.927 41.7662 100.884 41.8022C100.847 41.8309 100.818 41.8525 100.797 41.8668C100.782 41.8812 100.753 41.9064 100.71 41.9423C100.674 41.971 100.648 41.9926 100.634 42.007V48.2917Z" fill="#008C8C"/>
<path d="M112.306 42.7185C112.306 41.8057 112.259 41.159 112.165 40.7781C112.071 40.3972 111.897 40.2067 111.644 40.2067C111.427 40.2067 111.25 40.2463 111.112 40.3253C110.975 40.3972 110.873 40.5157 110.808 40.681C110.743 40.8391 110.7 41.0044 110.678 41.1769C110.663 41.3422 110.656 41.5542 110.656 41.8129V42.7185H112.306ZM111.438 48.5181C110.627 48.5181 109.922 48.3959 109.321 48.1516C108.727 47.9072 108.257 47.5658 107.91 47.1275C107.569 46.6891 107.32 46.1968 107.161 45.6506C107.001 45.0972 106.922 44.4828 106.922 43.8072C106.922 42.1974 107.334 40.9793 108.159 40.1528C108.984 39.3264 110.139 38.9131 111.622 38.9131C113.048 38.9131 114.069 39.2473 114.684 39.9157C115.299 40.5768 115.606 41.6441 115.606 43.1173V44.3139H110.645V44.5187C110.645 44.9427 110.689 45.2913 110.776 45.5644C110.87 45.8375 111.004 46.0387 111.177 46.168C111.351 46.2974 111.528 46.3836 111.709 46.4268C111.89 46.4699 112.111 46.4914 112.371 46.4914C112.625 46.4914 112.896 46.4591 113.186 46.3944C113.482 46.3297 113.779 46.2291 114.076 46.0926C114.38 45.956 114.633 45.7943 114.836 45.6075L115.476 46.6963C115.208 47.1275 114.814 47.4904 114.293 47.785C113.779 48.0725 113.283 48.2665 112.806 48.3672C112.328 48.4678 111.872 48.5181 111.438 48.5181Z" fill="#008C8C"/>
<path d="M121.233 52C120.488 52 119.786 51.8922 119.127 51.6766C118.469 51.461 117.987 51.1699 117.683 50.8034L118.248 49.6392C118.668 49.8763 119.334 49.9949 120.245 49.9949C120.535 49.9949 120.785 49.9626 120.995 49.8979C121.204 49.8332 121.393 49.7182 121.559 49.5529C121.725 49.3948 121.852 49.1685 121.939 48.8738C122.026 48.5792 122.073 48.2162 122.08 47.785V46.858L121.972 47.0304C121.899 47.1454 121.787 47.2856 121.635 47.4509C121.49 47.609 121.324 47.7707 121.136 47.936C120.947 48.0941 120.716 48.2306 120.441 48.3456C120.173 48.4606 119.898 48.5181 119.616 48.5181C118.537 48.5181 117.778 48.2198 117.336 47.6233C116.895 47.0197 116.674 46.0063 116.674 44.5834V40.7565L116.283 40.3684V39.1287H120.235V45.2625C120.235 45.5931 120.285 45.8375 120.387 45.9956C120.495 46.1465 120.709 46.2219 121.027 46.2219C121.121 46.2219 121.215 46.2076 121.309 46.1788C121.403 46.1429 121.494 46.0962 121.581 46.0387C121.675 45.9812 121.773 45.9093 121.874 45.8231V40.7565L121.277 40.3684V39.1287H125.413V47.0304C125.413 48.6187 125.073 49.844 124.392 50.7064C123.712 51.5688 122.659 52 121.233 52Z" fill="#008C8C"/>
<path d="M29.4537 33.6398L28.831 32.3773L28.2072 33.6398L26.8139 33.8425L27.8225 34.8253L27.5841 36.2133L28.831 35.558L30.0775 36.2133L29.8388 34.8253L30.8469 33.8425L29.4537 33.6398Z" fill="#008C8C"/>
<path d="M56.2201 23.0204C55.2304 20.6709 51.9704 16.8227 46.3887 17.7527C45.975 15.3321 44.5899 13.1289 42.5683 11.7815C40.7037 10.5382 38.4772 10.1396 36.2749 10.6171C35.8039 7.34328 33.9049 6.17322 32.3391 5.20881C30.8187 4.27261 29.8151 3.65406 29.8151 1.22647C29.8151 0.549049 29.2656 0 28.5886 0C27.9112 0 27.3621 0.549049 27.3621 1.22647C27.3621 3.66183 26.3801 4.27956 24.8941 5.21494C23.3606 6.17977 21.5017 7.34941 21.0397 10.6163C18.8378 10.1392 16.6121 10.5386 14.7479 11.781C12.7267 13.1285 11.3412 15.3317 10.9275 17.7523C5.3462 16.8227 2.08502 20.6709 1.09608 23.02C1.03271 23.1704 1 23.3323 1 23.4959V47.1017C1 47.7791 1.54946 48.3282 2.22647 48.3282H8.15605C8.83306 48.3282 9.38252 47.7791 9.38252 47.1017C9.38252 47.0637 9.37475 47.0285 9.37147 46.9921C9.38742 46.9132 9.396 46.8323 9.396 46.7493V37.7859C9.396 37.5602 9.32732 37.3288 9.20958 37.1362C9.20181 37.124 8.46757 35.8987 8.94017 34.66C9.29666 33.7254 9.92011 33.3048 10.7079 32.7721C11.0975 32.5092 11.5145 32.2275 11.9066 31.8694C12.2995 32.2275 12.7161 32.5092 13.1057 32.7721C13.8943 33.3048 14.5169 33.7254 14.8738 34.66C15.3472 35.9008 14.6171 37.1277 14.615 37.1309C14.4912 37.3268 14.4258 37.5541 14.4258 37.7859V48.8208C8.88334 53.1384 6.64789 57.947 7.43406 61.1329C7.86986 62.9015 9.2619 64 11.0656 64C16.8787 64 16.8787 56.799 16.8787 52.0333V50.0461C18.0631 49.1998 19.4089 48.3666 20.9281 47.5682C25.0453 45.4047 27.4116 44.0286 28.6716 42.7159C29.9312 44.029 32.2974 45.4051 36.4147 47.5682C37.9376 48.3682 39.2863 49.2035 40.4727 50.0518V52.0575C40.4727 54.4924 40.4727 57.2528 41.0884 59.5029C42.1055 63.22 44.4714 64 46.2775 64C48.0813 64 49.4729 62.9011 49.9091 61.1329C50.6949 57.9482 48.4619 53.1429 42.9256 48.8269V37.7859C42.9256 37.5602 42.8573 37.3288 42.7396 37.1362C42.7318 37.124 41.9972 35.8987 42.4698 34.66C42.8267 33.7254 43.4493 33.3048 44.2379 32.7721C44.6271 32.5092 45.0441 32.2275 45.4366 31.8694C45.8291 32.2275 46.2457 32.5092 46.6357 32.7721C47.4239 33.3048 48.0469 33.7254 48.4034 34.6596C48.876 35.8983 48.141 37.124 48.1393 37.1273C48.0138 37.3239 47.9476 37.5524 47.9476 37.7859V46.7493C47.9476 46.7853 47.955 46.8192 47.9578 46.8548C47.9419 46.9345 47.9329 47.0171 47.9329 47.1017C47.9329 47.7791 48.4823 48.3282 49.1593 48.3282H55.0889C55.7659 48.3282 56.3154 47.7791 56.3154 47.1017V23.4959C56.3162 23.3327 56.2835 23.1709 56.2201 23.0204ZM14.4262 52.0333C14.4262 57.4237 14.1788 61.5471 11.066 61.5471C10.3817 61.5471 9.98389 61.229 9.81546 60.5459C9.36739 58.729 10.6768 55.409 14.4258 52.0133L14.4262 52.0333ZM42.9264 52.0203C46.6688 55.4131 47.9766 58.7303 47.529 60.5454C47.3601 61.2286 46.9627 61.5466 46.2784 61.5466C45.2469 61.5466 44.1042 61.2269 43.455 58.855C42.9264 56.9224 42.9264 54.3379 42.9264 52.0329V52.0203ZM53.8633 45.8757H50.4009V38.0949C50.7554 37.377 51.4095 35.6555 50.6957 33.7855C50.0624 32.1269 48.9239 31.3575 48.0089 30.7398C47.4035 30.331 46.9255 30.008 46.6291 29.4966C46.4104 29.1176 46.0057 28.8842 45.5678 28.8842H45.307C44.8692 28.8842 44.4648 29.1176 44.2453 29.4962C43.9493 30.0076 43.471 30.3306 42.8655 30.7398C41.9506 31.3579 40.812 32.1269 40.1787 33.7855C39.4649 35.6555 40.1186 37.377 40.4735 38.0949V47.0923C39.5671 46.5097 38.5954 45.9431 37.5565 45.3969C32.3759 42.6746 30.6568 41.4931 30.118 40.5941C30.6499 40.4522 31.1491 40.2486 31.5898 39.9915C32.2451 39.6027 32.7692 39.1055 33.1703 38.599C33.5701 38.0884 33.842 37.5586 34.01 37.0721C34.1919 36.5892 34.2504 36.1436 34.2949 35.7867C34.3068 35.5954 34.3089 35.4261 34.3117 35.281C34.3154 35.1338 34.2941 35.0443 34.2892 34.9535C34.2704 34.7818 34.2606 34.6903 34.2606 34.6903C34.2373 34.4846 34.086 34.3064 33.8726 34.261C33.6061 34.2042 33.3436 34.3742 33.2864 34.6408C33.2864 34.6408 33.2672 34.7311 33.2312 34.9C33.2112 34.9789 33.2001 35.1015 33.1633 35.1984C33.1286 35.2978 33.0877 35.4094 33.0517 35.5328C32.9957 35.6624 32.9405 35.8059 32.8718 35.9564C32.7856 36.1011 32.7189 36.2646 32.609 36.42C32.4205 36.7454 32.1364 37.0635 31.8073 37.3631C31.147 37.9596 30.1806 38.4183 29.1315 38.4199L28.9353 38.4171L28.8703 38.4175L28.8666 38.4171L28.8343 38.4142L28.7697 38.4081L28.5097 38.3844L28.3817 38.3721L28.3004 38.3504C28.1037 38.3043 27.8212 38.2401 27.5805 38.1338C27.0878 37.9306 26.6267 37.6313 26.2522 37.2438C25.8744 36.8582 25.5944 36.3897 25.4067 35.8991C25.3532 35.7785 25.3221 35.6506 25.289 35.5243C25.2448 35.4004 25.2322 35.27 25.2056 35.1424C25.1721 35.0157 25.1798 34.884 25.1627 34.7557L25.1582 34.7074L25.1557 34.6833L25.1545 34.671C25.1533 34.6976 25.1553 34.6032 25.152 34.7291V34.7209L25.1537 34.5917L25.1561 34.335C25.1712 33.8665 25.2763 33.3681 25.4611 32.9217C25.6438 32.4753 25.9026 32.0828 26.1839 31.7451C26.4676 31.409 26.7873 31.1404 27.0972 30.9336C27.4051 30.719 27.7104 30.584 27.9668 30.4643C28.2301 30.3735 28.4443 30.2885 28.5964 30.2574C28.7489 30.2141 28.8302 30.1908 28.8302 30.1908L28.894 30.1728C29.0673 30.1229 29.2039 29.9757 29.2305 29.7856C29.2664 29.5285 29.0874 29.2905 28.8302 29.2545C28.8302 29.2545 28.7296 29.2406 28.5416 29.2141C28.3511 29.1814 28.071 29.1703 27.7047 29.181C27.5253 29.201 27.3208 29.2157 27.1009 29.2525C26.8879 29.3081 26.6438 29.3453 26.4018 29.4389C25.8994 29.5886 25.3708 29.876 24.8446 30.2688C23.7947 31.0595 22.8397 32.4201 22.6578 34.2083L22.6349 34.4642L22.6231 34.593L22.6206 34.6751L22.621 34.6952L22.6218 34.7356L22.6239 34.817C22.6349 35.0337 22.6251 35.2536 22.6623 35.4727C22.7101 35.9118 22.8042 36.355 22.9616 36.7797C23.2584 37.6371 23.7706 38.4277 24.4174 39.0769C25.0776 39.7135 25.8757 40.2069 26.7305 40.4882C26.8887 40.5426 27.0461 40.5867 27.2052 40.626C26.6442 41.5209 24.9059 42.7065 19.7866 45.3965C18.7515 45.9407 17.7814 46.5061 16.8783 47.0866V38.0925C17.2295 37.3758 17.8783 35.6543 17.1649 33.7851C16.5316 32.1265 15.393 31.3571 14.4781 30.7394C13.8722 30.3302 13.3943 30.0076 13.0983 29.4958C12.8788 29.1172 12.4748 28.8837 12.0366 28.8837H11.7758C11.3383 28.8837 10.9336 29.1172 10.7145 29.4958C10.4181 30.0072 9.93974 30.3302 9.33468 30.7394C8.41974 31.3575 7.28116 32.1265 6.64789 33.7851C5.93408 35.6551 6.5882 37.3766 6.94265 38.0945V45.8752H3.45254V23.7661C3.94026 22.7874 6.28404 18.839 11.6756 20.4407C12.0472 20.5507 12.4483 20.4796 12.7582 20.2478C13.0685 20.0164 13.2512 19.6517 13.2512 19.265C13.2512 17.0827 14.346 14.9968 16.1076 13.8223C17.7527 12.7254 19.7339 12.5697 21.6852 13.3824C22.0638 13.5402 22.4959 13.4985 22.8373 13.2708C23.1782 13.0435 23.3835 12.6604 23.3835 12.2504C23.3835 9.06319 24.6259 8.28153 26.199 7.29136C26.9995 6.78769 27.8965 6.22229 28.5972 5.31593C29.313 6.22637 30.2321 6.793 31.0514 7.29749C32.6597 8.28807 33.9299 9.07055 33.9299 12.2504C33.9299 12.6604 34.1351 13.0435 34.4761 13.2708C34.8178 13.4985 35.2508 13.5402 35.6281 13.3824C37.5794 12.5693 39.5606 12.7258 41.2061 13.8223C42.9677 14.9973 44.0625 17.0827 44.0625 19.265C44.0625 19.6521 44.2453 20.0164 44.5556 20.2478C44.8659 20.4792 45.2673 20.5507 45.6381 20.4407C50.9892 18.8512 53.3686 22.8021 53.8612 23.7706V45.8757H53.8633Z" fill="#008C8C"/>
</svg>
