<svg width="24" height="24" viewBox="0 0 24 24" fill="none" xmlns="http://www.w3.org/2000/svg">
<path d="M21.15 15.1125C21.7167 14.1708 22 13.1333 22 12C22 10.8667 21.7167 9.82917 21.15 8.8875C20.5833 7.94583 19.825 7.225 18.875 6.725C18.6417 6.59167 18.475 6.4 18.375 6.15C18.275 5.9 18.2833 5.65833 18.4 5.425C18.5167 5.15833 18.7042 4.97083 18.9625 4.8625C19.2208 4.75417 19.4667 4.76667 19.7 4.9C20.9833 5.56667 22.0208 6.525 22.8125 7.775C23.6042 9.025 24 10.4333 24 12C24 13.5833 23.5917 15.0042 22.775 16.2625C21.9583 17.5208 20.9 18.4833 19.6 19.15C19.3667 19.2833 19.125 19.2917 18.875 19.175C18.625 19.0583 18.45 18.8667 18.35 18.6C18.25 18.35 18.2542 18.1 18.3625 17.85C18.4708 17.6 18.6417 17.4083 18.875 17.275C19.825 16.775 20.5833 16.0542 21.15 15.1125Z" fill="#E8EAED"/>
<path d="M15.6625 17.6625C14.1042 19.2208 12.2167 20 10 20C9.06667 20 8.18333 19.85 7.35 19.55C6.51667 19.25 5.75833 18.8333 5.075 18.3C4.85833 18.1333 4.75 17.9167 4.75 17.65C4.75 17.3833 4.85 17.15 5.05 16.95C5.23333 16.7667 5.4625 16.6667 5.7375 16.65C6.0125 16.6333 6.26667 16.7083 6.5 16.875C7 17.2417 7.54583 17.5208 8.1375 17.7125C8.72917 17.9042 9.35 18 10 18C11.6667 18 13.0833 17.4167 14.25 16.25C15.4167 15.0833 16 13.6667 16 12C16 10.3333 15.4167 8.91667 14.25 7.75C13.0833 6.58333 11.6667 6 10 6C9.35 6 8.72917 6.09583 8.1375 6.2875C7.54583 6.47917 7 6.75833 6.5 7.125C6.26667 7.29167 6.0125 7.36667 5.7375 7.35C5.4625 7.33333 5.23333 7.23333 5.05 7.05C4.85 6.85 4.75 6.61667 4.75 6.35C4.75 6.08333 4.85833 5.86667 5.075 5.7C5.75833 5.16667 6.51667 4.75 7.35 4.45C8.18333 4.15 9.06667 4 10 4C12.2167 4 14.1042 4.77917 15.6625 6.3375C17.2208 7.89583 18 9.78333 18 12C18 14.2167 17.2208 16.1042 15.6625 17.6625Z" fill="#E8EAED"/>
<path d="M7.60003 13H1.40002C1.11669 13 0.879191 12.9042 0.687525 12.7125C0.495858 12.5208 0.400024 12.2833 0.400024 12C0.400024 11.7167 0.495858 11.4792 0.687525 11.2875C0.879191 11.0958 1.11669 11 1.40002 11H7.60003L6.70003 10.1C6.51669 9.91665 6.42502 9.68332 6.42502 9.39999C6.42502 9.11665 6.51669 8.88332 6.70003 8.69999C6.88336 8.51665 7.11669 8.42499 7.40002 8.42499C7.68336 8.42499 7.91669 8.51665 8.10003 8.69999L10.7 11.3C10.9 11.5 11 11.7333 11 12C11 12.2667 10.9 12.5 10.7 12.7L8.10003 15.3C7.91669 15.4833 7.68336 15.575 7.40002 15.575C7.11669 15.575 6.88336 15.4833 6.70003 15.3C6.51669 15.1167 6.42502 14.8833 6.42502 14.6C6.42502 14.3167 6.51669 14.0833 6.70003 13.9L7.60003 13Z" fill="#E8EAED"/>
</svg>
